<svg width="388" height="83" viewBox="0 0 388 83" fill="none" xmlns="http://www.w3.org/2000/svg">
<path fill-rule="evenodd" clip-rule="evenodd" d="M132.738 0C133.619 0 134.431 0.431094 135.054 1.05383L186.912 52.9117C190.817 56.817 197.149 56.817 201.054 52.9117L252.912 1.05383C253.535 0.431107 254.347 0 255.228 0H368C379.046 0 388 8.95428 388 20V63C388 74.0457 379.046 83 368 83H20C8.95431 83 0 74.0457 0 63V20C0 8.95428 8.95431 0 20 0H132.738Z" fill="url(#paint0_linear_42_1646)" fill-opacity="0.6"/>
<path d="M132.738 0.5C133.452 0.5 134.144 0.851105 134.7 1.4074L186.558 53.2653C190.659 57.3658 197.307 57.3658 201.407 53.2653L253.265 1.40739C253.822 0.851113 254.514 0.5 255.228 0.5H368C378.77 0.5 387.5 9.23043 387.5 20V63C387.5 73.7696 378.77 82.5 368 82.5H20C9.23045 82.5 0.5 73.7696 0.5 63V20C0.5 9.23043 9.23045 0.5 20 0.5H132.738Z" stroke="white" stroke-opacity="0.1"/>
<defs>
<linearGradient id="paint0_linear_42_1646" x1="-9.49411e-08" y1="42" x2="388" y2="42" gradientUnits="userSpaceOnUse">
<stop stop-color="#353535"/>
<stop offset="0.484375" stop-color="#5B5B5B"/>
<stop offset="1" stop-color="#353535"/>
</linearGradient>
</defs>
</svg>
